<svg xmlns="http://www.w3.org/2000/svg" viewBox="0 0 64 64" fill="none">
  <rect width="64" height="64" rx="12" fill="#0f172a"/>
  <!-- Building -->
  <rect x="18" y="16" width="12" height="34" rx="1" fill="#e2e8f0"/>
  <rect x="34" y="24" width="12" height="26" rx="1" fill="#cbd5e1"/>
  <!-- Windows -->
  <rect x="21" y="20" width="3" height="3" rx="0.5" fill="#0f172a"/>
  <rect x="26" y="20" width="3" height="3" rx="0.5" fill="#0f172a"/>
  <rect x="21" y="26" width="3" height="3" rx="0.5" fill="#0f172a"/>
  <rect x="26" y="26" width="3" height="3" rx="0.5" fill="#0f172a"/>
  <rect x="21" y="32" width="3" height="3" rx="0.5" fill="#0f172a"/>
  <rect x="26" y="32" width="3" height="3" rx="0.5" fill="#0f172a"/>
  <rect x="37" y="28" width="3" height="3" rx="0.5" fill="#0f172a"/>
  <rect x="42" y="28" width="3" height="3" rx="0.5" fill="#0f172a"/>
  <rect x="37" y="34" width="3" height="3" rx="0.5" fill="#0f172a"/>
  <rect x="42" y="34" width="3" height="3" rx="0.5" fill="#0f172a"/>
  <!-- Trending up line -->
  <polyline points="10,48 22,40 34,43 54,22" stroke="#10B981" stroke-width="3" stroke-linecap="round" stroke-linejoin="round" fill="none"/>
  <!-- Arrow tip -->
  <polyline points="48,22 54,22 54,28" stroke="#10B981" stroke-width="3" stroke-linecap="round" stroke-linejoin="round" fill="none"/>
</svg>
